<svg xmlns="http://www.w3.org/2000/svg" xmlns:xlink="http://www.w3.org/1999/xlink" width="24" height="24" viewBox="0 0 24 24"><defs><style>.a,.d{fill:#fff;}.a{stroke:#00dcec;}.b{clip-path:url(#a);}.c{fill:none;}</style><clipPath id="a"><rect class="a" width="24" height="24"/></clipPath></defs><g class="b"><path class="c" d="M0,0H24V24H0Z"/><path class="d" d="M20,6H19v8a1,1,0,0,1-1,1H6v1a2.006,2.006,0,0,0,2,2H18l4,4V8A2.006,2.006,0,0,0,20,6Zm-3,5V4a2.006,2.006,0,0,0-2-2H4A2.006,2.006,0,0,0,2,4V17l4-4h9A2.006,2.006,0,0,0,17,11Z"/></g></svg>