<svg xmlns="http://www.w3.org/2000/svg" xmlns:xlink="http://www.w3.org/1999/xlink" width="24" height="24" viewBox="0 0 24 24"><defs><style>.a{fill:#fff;stroke:#00dcec;}.b{clip-path:url(#a);}.c{fill:none;}.d{fill:#00dcec;}</style><clipPath id="a"><rect class="a" width="24" height="24" transform="translate(1104 40)"/></clipPath></defs><g class="b" transform="translate(-1104 -40)"><g transform="translate(1104 40)"><path class="c" d="M0,0H24V24H0Z"/><path class="d" d="M12,8a2,2,0,1,0-2-2A2.006,2.006,0,0,0,12,8Zm0,2a2,2,0,1,0,2,2A2.006,2.006,0,0,0,12,10Zm0,6a2,2,0,1,0,2,2A2.006,2.006,0,0,0,12,16Z"/></g></g></svg>