<svg width="50" height="45" viewBox="0 0 50 45" fill="none" xmlns="http://www.w3.org/2000/svg">
<g clip-path="url(#clip0)">
<path d="M49.9187 41.8293L45.4471 25.9756C45.1626 24.9187 44.187 24.187 43.0894 24.187H29.878C33.0487 20.2033 35.5284 14.4309 35.5284 10.3659C35.5691 4.63415 30.9349 0 25.2032 0C19.4715 0 14.8374 4.63415 14.8374 10.3659C14.8374 14.4309 17.3577 20.2033 20.4878 24.187H6.91054C5.81297 24.187 4.83737 24.9187 4.55281 25.9756L0.0812679 41.8293C-0.121984 42.561 0.0406175 43.374 0.487772 43.9837C0.934926 44.5935 1.66663 44.9594 2.43899 44.9594H47.5609C48.3333 44.9594 49.065 44.5935 49.5122 43.9837C49.9593 43.3333 50.1219 42.561 49.9187 41.8293ZM17.2764 10.3659C17.2764 5.97561 20.813 2.43902 25.2032 2.43902C29.5935 2.43902 33.13 5.97561 33.13 10.3659C33.13 14.2276 30.1219 20.7317 26.626 24.187C26.1382 24.6748 25.6504 25.0813 25.2032 25.4065C24.7154 25.0813 24.2276 24.6748 23.7805 24.187C20.2845 20.7317 17.2764 14.2276 17.2764 10.3659ZM6.91054 26.626H22.8048C23.13 26.9106 23.4553 27.1545 23.7805 27.3984C24.187 27.6829 24.6748 27.8455 25.1626 27.8455C25.6504 27.8455 26.1382 27.6829 26.5447 27.3984C26.8699 27.1545 27.1951 26.9106 27.5203 26.626H43.0894L43.6992 28.8618L36.7073 34.6748L6.21948 29.0244L6.91054 26.626ZM8.94306 42.4797H2.43899L5.56907 31.3821L8.94306 31.9919V42.4797ZM11.3821 42.4797V32.4797L34.2683 36.7073L27.3577 42.4797H11.3821V42.4797ZM31.1788 42.4797L44.4309 31.4228L47.5609 42.4797H31.1788Z" fill="white"/>
<path d="M25.2032 9.34959C25.8943 9.34959 26.4227 9.87805 26.4227 10.5691C26.4227 11.2602 25.8943 11.7886 25.2032 11.7886C24.5122 11.7886 23.9837 11.2602 23.9837 10.5691C23.9837 9.87805 24.5122 9.34959 25.2032 9.34959ZM25.2032 6.91057C23.1707 6.91057 21.5447 8.53658 21.5447 10.5691C21.5447 12.6016 23.1707 14.2276 25.2032 14.2276C27.2357 14.2276 28.8617 12.6016 28.8617 10.5691C28.8617 8.53658 27.2357 6.91057 25.2032 6.91057Z" fill="white"/>
</g>
<defs>
<clipPath id="clip0">
<rect width="50" height="44.9187" fill="white"/>
</clipPath>
</defs>
</svg>
