<svg width="19" height="26" viewBox="0 0 19 26" fill="none" xmlns="http://www.w3.org/2000/svg">
<g clip-path="url(#clip0)">
<path d="M9.49997 2.73358C5.47954 2.73358 2.24085 5.97226 2.24085 9.9927C2.24085 14.0131 5.77735 21.1606 9.49997 23.7664C13.2226 21.1606 16.7591 14.0131 16.7591 9.9927C16.7591 5.97226 13.5204 2.73358 9.49997 2.73358ZM9.49997 0.5C14.7489 0.5 18.9927 4.7438 18.9927 9.9927C18.9927 14.981 14.935 22.6869 10.7657 25.5905C10.3934 25.8511 9.94669 26 9.49997 26C9.05326 26 8.60654 25.8511 8.23428 25.5905C4.06494 22.6869 0.00727421 14.981 0.00727421 9.9927C0.00727421 4.7438 4.25107 0.5 9.49997 0.5Z" fill="white"/>
<path d="M9.49997 7.38687C7.97369 7.38687 6.70799 8.65256 6.70799 10.1788C6.70799 11.7051 7.97369 12.9708 9.49997 12.9708C11.0262 12.9708 12.2919 11.7051 12.2919 10.1788C12.2919 8.65256 11.0262 7.38687 9.49997 7.38687ZM9.49997 5.15329C12.2547 5.15329 14.5255 7.42409 14.5255 10.1788C14.5255 12.9336 12.2547 15.2044 9.49997 15.2044C6.74522 15.2044 4.47442 12.9336 4.47442 10.1788C4.47442 7.42409 6.74522 5.15329 9.49997 5.15329Z" fill="white"/>
</g>
<defs>
<clipPath id="clip0">
<rect width="18.9854" height="25.5" fill="white" transform="matrix(-1 0 0 1 18.9927 0.5)"/>
</clipPath>
</defs>
</svg>
