<svg width="64" height="64" viewBox="0 0 64 64" fill="none" xmlns="http://www.w3.org/2000/svg">
<path d="M49.9617 49.614C42.5103 56.8178 33.6726 60.8529 23.2506 61.3233C18.448 61.5461 13.8187 60.8777 9.26374 59.4171C5.97126 58.3774 4.04034 56.3227 3.19865 52.956C1.24297 45.2075 1.73808 37.6076 4.26314 30.0819C6.36735 23.794 9.95689 18.3726 14.8337 13.9166C23.6714 5.79679 34.143 2.13298 46.1741 3.17271C49.6894 3.46978 53.0809 4.28671 56.3239 5.64826C58.2796 6.46519 59.5421 7.82674 60.2105 9.83193C62.5375 16.8625 62.488 23.9425 60.6808 31.0226C58.8489 38.2017 55.2842 44.4153 49.9617 49.614ZM58.0815 17.7289C57.6854 17.7784 57.6359 18.0012 57.5864 18.1745C55.1109 24.5367 51.3728 30.1809 46.8673 35.2558C40.4061 42.5587 33.0537 48.797 24.3398 53.3273C23.0525 53.9957 22.0128 53.8719 21.4187 52.8817C20.8245 51.8667 21.1711 50.9012 22.5079 50.1833C26.0479 48.2277 29.4642 46.0987 32.6577 43.6231C40.9507 37.162 47.9565 29.6363 52.7096 20.155C54.1702 17.2338 55.2099 14.1641 55.8288 10.9459C56.0268 9.9062 55.8288 9.26256 54.7395 8.89122C53.378 8.42087 52.0412 7.87625 50.6301 7.57918C35.8016 4.65804 23.3991 8.94073 13.7692 20.5758C6.36736 29.5125 4.2879 39.8851 6.46638 51.1983C7.011 54.0204 8.49632 55.5305 11.2442 56.2732C23.3248 59.5161 34.341 57.511 44.2185 49.7872C52.9819 42.9052 57.5864 33.82 58.3043 22.7295C58.4033 21.0462 58.3291 19.3875 58.0815 17.7289Z" fill="white"/>
<path d="M34.9351 14.7335C35.257 15.5752 35.8016 15.5009 36.5442 14.9315C37.0146 14.5602 37.584 14.2879 38.1533 14.0156C39.1188 13.5452 40.1585 13.8176 40.6041 14.684C41.0745 15.5999 40.8764 16.4416 40.0348 17.0605C39.812 17.2338 39.5396 17.3576 39.2921 17.5061C37.8068 18.3726 37.8068 18.3726 38.4504 20.0064C38.8217 20.9471 38.4504 21.9869 37.5097 22.3829C36.5442 22.8038 35.6283 22.5562 35.1579 21.6403C34.6381 20.6253 34.1677 20.6748 33.4498 21.3927C33.2023 21.6403 32.8557 21.8136 32.5339 22.0364C31.6674 22.6057 31.0733 23.1008 32.1625 24.1653C32.8804 24.8585 32.7567 25.8735 31.9645 26.5914C31.1723 27.2845 30.1078 27.334 29.5384 26.5419C28.5482 25.106 27.9046 25.824 27.1619 26.6656C27.0134 26.8142 26.8648 26.9627 26.7163 27.0865C25.8994 27.7054 25.3548 28.2252 26.543 29.1659C27.4095 29.8591 27.3352 30.9483 26.6668 31.691C25.9489 32.4832 24.8844 32.5822 24.0427 31.7158C23.1763 30.8246 22.6564 31.0474 22.1118 31.9385C21.9633 32.1861 21.7405 32.3841 21.5424 32.5822C20.7998 33.3001 20.1561 33.919 21.4929 34.8102C22.3594 35.4043 22.4089 36.6421 21.7652 37.3105C21.0226 38.0779 20.0076 38.2759 19.2154 37.558C18.1757 36.5678 17.7548 37.2362 17.235 38.0284C16.8884 38.5483 16.5418 39.0681 16.0962 39.4642C15.3783 40.1079 14.5366 40.2069 13.7444 39.5385C13.0018 38.8948 12.8037 38.1274 13.2989 37.2362C13.4721 36.9144 13.6949 36.5926 13.893 36.3203C14.6357 35.33 15.6506 34.4636 13.8435 33.3744C13.0513 32.904 13.1751 31.8148 13.794 31.0474C14.4376 30.2799 15.3536 30.0571 16.0962 30.7255C17.3092 31.8148 17.9776 31.1959 18.646 30.1809C18.7451 30.0571 18.8441 29.9086 18.9679 29.8096C19.9333 28.9431 20.5027 28.1757 19.1412 27.0617C18.4232 26.4676 18.6213 25.4526 19.3144 24.7595C20.0818 24.0168 21.0968 23.9673 21.7405 24.71C22.7802 25.923 23.3991 25.2793 24.117 24.4872C24.3645 24.2148 24.6369 23.9673 24.9339 23.7197C25.7261 23.1009 26.2955 22.581 25.231 21.566C24.4388 20.8233 24.7111 19.6598 25.4538 19.041C26.246 18.3726 27.3105 18.4221 28.0531 19.3628C28.7215 20.2045 29.2414 20.2787 29.9593 19.5113C30.1821 19.2638 30.4791 19.0905 30.7515 18.9172C31.8655 18.2488 32.6824 17.6051 31.5684 16.1446C30.9495 15.3276 31.3951 14.3374 32.311 13.8671C33.326 13.2977 34.2172 13.669 34.9351 14.7335Z" fill="white"/>
</svg>
