<svg width="64" height="64" viewBox="0 0 64 64" fill="none" xmlns="http://www.w3.org/2000/svg">
<path d="M21.7978 57.5392C22.239 55.2843 22.6802 53.152 23.1458 50.8725C22.7537 50.8725 22.4351 50.8725 22.1409 50.8725C18.1949 50.8725 14.2488 50.8725 10.3027 50.8725C5.30269 50.8725 2.04289 47.6127 2.01838 42.6127C1.99387 31.8529 1.99387 21.0931 2.01838 10.3088C2.01838 5.2598 5.27819 2 10.3272 2C24.7145 2 39.1017 2 53.489 2C58.538 2 61.8223 5.28431 61.8223 10.3088C61.8223 21.0931 61.8223 31.902 61.8223 42.6863C61.8223 46.6078 59.6655 49.5735 56.038 50.5784C55.2537 50.799 54.3958 50.848 53.5625 50.848C49.6164 50.8725 45.6703 50.8725 41.7243 50.8725C41.4056 50.8725 41.087 50.8725 40.6949 50.8725C41.1605 53.1274 41.5772 55.2843 42.0429 57.5392C44.1752 57.5392 46.2586 57.5392 48.3419 57.5392C49.1998 57.5392 49.9351 57.8088 50.4007 58.5686C51.2096 59.8922 50.5478 61.5343 49.0282 61.902C48.685 61.9755 48.3174 62 47.9498 62C37.239 62 26.5282 62 15.8419 62C14.8125 62 13.9056 61.7794 13.3909 60.8235C12.5331 59.3039 13.587 57.5637 15.3762 57.5392C17.1654 57.4902 18.9547 57.5392 20.7684 57.5392C21.0625 57.5392 21.3811 57.5392 21.7978 57.5392ZM31.8713 46.4118C39.0527 46.4118 46.2341 46.4118 53.3909 46.4118C56.136 46.4118 57.337 45.2108 57.337 42.5147C57.337 31.8039 57.337 21.1176 57.337 10.4069C57.337 7.71078 56.087 6.43627 53.3909 6.43627C39.0282 6.43627 24.69 6.43627 10.3272 6.43627C7.70466 6.43627 6.40564 7.73529 6.40564 10.3578C6.40564 21.0931 6.40564 31.8284 6.40564 42.5637C6.40564 45.1618 7.65564 46.4363 10.2292 46.4363C17.4596 46.4118 24.6654 46.4118 31.8713 46.4118ZM27.6066 50.9216C27.1654 53.1765 26.7488 55.3333 26.3321 57.5147C30.0576 57.5147 33.7341 57.5147 37.4596 57.5147C37.0184 55.2843 36.6017 53.1029 36.1605 50.9216C33.2929 50.9216 30.4988 50.9216 27.6066 50.9216Z" fill="white"/>
<path d="M31.8469 41.9755C26.4057 41.9755 20.9645 41.9755 15.5233 41.9755C13.7096 41.9755 12.5822 40.4804 13.293 38.9363C13.538 38.3971 14.2243 38.0294 14.7635 37.6618C15.0086 37.5147 15.4008 37.5637 15.7194 37.5637C26.4792 37.5637 37.239 37.5637 47.9988 37.5637C48.9547 37.5637 49.8616 37.7108 50.4008 38.6422C51.2586 40.1373 50.2537 41.951 48.489 41.9755C45.7194 42.0245 42.9253 42 40.1557 42C37.3861 41.9755 34.6165 41.9755 31.8469 41.9755Z" fill="white"/>
</svg>
