<svg width="64" height="64" viewBox="0 0 64 64" fill="none" xmlns="http://www.w3.org/2000/svg">
<path d="M8.41479 14.1688C8.41479 12.5771 8.41479 11.1061 8.41479 9.61088C8.41479 7.89866 8.89711 7.39223 10.6334 7.41635C14.1302 7.44046 17.627 7.41635 21.1238 7.53693C24.5482 7.68162 27.6109 8.91152 30.336 10.9614C30.5048 11.0819 30.6977 11.2025 30.746 11.2508C31.6383 9.77969 32.3858 8.23628 33.4469 6.93403C36.0273 3.75075 39.4277 2.135 43.5032 1.94207C44.709 1.89384 45.9389 1.91796 47.1447 1.91796C48.4469 1.91796 49.0016 2.47262 49.0257 3.77487C49.0257 4.95654 49.0257 6.13821 49.0257 7.41635C50.4968 7.41635 51.8955 7.41635 53.2701 7.41635C55.1511 7.41635 55.6093 7.87455 55.6093 9.75558C55.6093 11.1784 55.6093 12.6254 55.6093 14.1446C56.8633 14.1446 58.0691 14.1446 59.2508 14.1446C61.1077 14.1446 62 14.9887 62 16.8697C62 29.1446 62 41.4437 62 53.7186C62 55.5755 61.1077 56.4196 59.2267 56.4196C54.4277 56.4196 49.6286 56.4678 44.8537 56.4196C42.008 56.3955 39.6206 57.2877 37.7154 59.4099C34.7492 62.7379 29.3955 63.0032 26.1881 59.3617C24.3794 57.3119 22.0161 56.3955 19.2669 56.3955C14.4678 56.4196 9.66881 56.3955 4.89389 56.3955C2.81994 56.3955 2 55.5996 2 53.5016C2 41.3231 2 29.1446 2 16.9662C2 14.8922 2.79582 14.0964 4.91801 14.0964C6.02733 14.1688 7.16077 14.1688 8.41479 14.1688ZM30.4325 50.0771C30.4566 50.0048 30.4566 49.9807 30.4566 49.9565C30.4566 38.5016 30.4566 27.0466 30.4566 15.5916C30.4566 15.3504 30.336 15.0369 30.1672 14.8681C27.828 12.6012 25.0547 11.0096 21.799 10.7684C18.4228 10.5032 15.0225 10.6237 11.6463 10.5755C11.5981 10.5755 11.5498 10.6237 11.5016 10.672C11.5016 22.6334 11.5016 34.5948 11.5016 46.6768C11.8392 46.6768 12.1286 46.6768 12.418 46.6768C14.709 46.6768 17 46.7009 19.2669 46.6768C21.8232 46.6527 24.3312 47.0385 26.6704 48.0996C27.9486 48.6543 29.1543 49.3778 30.4325 50.0771ZM45.9148 39.8038C45.9148 28.1318 45.9148 16.5803 45.9148 4.98066C42.201 4.71538 38.8971 5.53532 36.3408 8.30863C34.701 10.0691 33.5434 12.0948 33.5434 14.5787C33.5193 24.2974 33.5193 34.016 33.5193 43.7588C33.5193 44.0241 33.5193 44.2652 33.5193 44.7717C35.2315 42.8424 37.0643 41.5643 39.2106 40.7443C41.3328 39.9003 43.5756 39.7556 45.9148 39.8038ZM5.08682 53.3569C5.47267 53.3569 5.76206 53.3569 6.07556 53.3569C10.3682 53.3569 14.6608 53.3328 18.9775 53.381C20.1592 53.4051 21.3408 53.5016 22.4984 53.7668C24.9341 54.2974 26.9116 55.6479 28.6238 57.4565C30.5289 59.4582 33.5434 59.5546 35.3039 57.553C38.0048 54.5385 41.3569 53.3086 45.3119 53.3569C49.5322 53.4051 53.7524 53.3569 57.9486 53.3569C58.2379 53.3569 58.5273 53.3569 58.865 53.3569C58.865 41.2749 58.865 29.2893 58.865 17.2797C57.7556 17.2797 56.6945 17.2797 55.5852 17.2797C55.5852 17.6655 55.5852 18.0032 55.5852 18.3167C55.5852 27.9871 55.5852 37.6575 55.5852 47.3279C55.5852 49.2572 55.1511 49.6913 53.1736 49.6913C50.4003 49.6913 47.6029 49.6913 44.8296 49.6913C40.3199 49.6672 36.4855 51.2106 33.3746 54.4903C32.3617 55.5514 31.59 55.5273 30.5772 54.4662C27.4904 51.2347 23.7042 49.7154 19.2669 49.7154C16.4212 49.7154 13.5997 49.7154 10.754 49.7154C8.82476 49.7154 8.39067 49.2813 8.39067 47.3279C8.39067 37.6575 8.39067 27.9871 8.39067 18.3167C8.39067 17.9791 8.39067 17.6173 8.39067 17.2797C7.209 17.2797 6.17203 17.2797 5.11093 17.2797C5.08682 29.3135 5.08682 41.2749 5.08682 53.3569ZM34.1463 49.7395C34.4116 49.6189 34.508 49.5707 34.6286 49.4983C37.4984 47.6414 40.6576 46.7009 44.0579 46.6527C46.5418 46.6286 49.0257 46.6286 51.4855 46.6286C51.799 46.6286 52.1125 46.6045 52.426 46.5803C52.426 34.4983 52.426 22.5128 52.426 10.5514C51.2685 10.5514 50.1592 10.5514 49.0016 10.5514C49.0016 10.9372 49.0016 11.2508 49.0016 11.5884C49.0016 21.3311 49.0016 31.098 49.0016 40.8408C49.0016 42.3842 48.4711 42.9147 46.9035 42.9147C46.1077 42.9147 45.3119 42.9147 44.5161 42.9147C42.2974 42.9147 40.1994 43.3971 38.3183 44.6028C36.4373 45.8569 35.0145 47.4726 34.1463 49.7395Z" fill="white"/>
<path d="M18.3263 16.7733C21.0514 16.7491 23.68 17.2556 26.1398 18.4372C27.1286 18.8954 27.5386 19.6913 27.1768 20.5353C26.791 21.4035 25.9469 21.7411 24.9823 21.2829C22.6189 20.1977 20.1109 19.7877 17.5305 19.8601C17 19.8842 16.4935 19.8601 15.963 19.7877C15.1431 19.6671 14.5884 19.016 14.6125 18.2684C14.6607 17.4485 15.2154 16.8697 16.0836 16.7733C16.1318 16.7733 16.2042 16.7733 16.2524 16.7733C16.9517 16.7733 17.627 16.7733 18.3263 16.7733Z" fill="white"/>
<path d="M18.0129 36.9823C20.8826 36.9582 23.656 37.4405 26.2363 38.7427C26.8875 39.0562 27.3939 39.5868 27.2492 40.262C27.1527 40.7684 26.6945 41.2749 26.2605 41.6366C26.0434 41.8054 25.4887 41.7572 25.1752 41.6125C22.7396 40.4308 20.1592 39.9967 17.4823 40.0932C17.0241 40.1173 16.5418 40.1173 16.0836 40.0691C15.1672 39.9485 14.5884 39.2974 14.6125 38.4774C14.6367 37.6575 15.2637 37.0546 16.1801 36.9823C16.2283 36.9823 16.3006 36.9823 16.3489 36.9823C16.9035 36.9823 17.4582 36.9823 18.0129 36.9823Z" fill="white"/>
<path d="M17.7717 30.1816C20.7621 30.2298 23.6319 30.6639 26.3087 32.0385C26.984 32.3761 27.3939 32.8826 27.2734 33.6784C27.1528 34.4019 26.7187 34.8842 25.9711 34.9565C25.6576 34.9806 25.2959 34.9324 25.0065 34.7877C22.4743 33.606 19.8216 33.2202 17.0483 33.3167C16.6142 33.3408 16.1801 33.2684 15.746 33.1961C14.9743 33.0755 14.6367 32.4967 14.6126 31.7974C14.5885 31.0739 14.9743 30.4951 15.6978 30.3504C16.3971 30.2298 17.0724 30.2298 17.7717 30.1816Z" fill="white"/>
<path d="M18.3987 23.5498C21.0755 23.5257 23.6318 24.0321 26.0675 25.1897C27.1527 25.6961 27.5386 26.4678 27.1768 27.336C26.791 28.2042 25.9228 28.4935 24.8617 28.0112C22.4742 26.926 19.9903 26.5402 17.3858 26.5884C16.8553 26.5884 16.3247 26.5884 15.8183 26.4919C15.0466 26.3231 14.5402 25.6479 14.6125 24.9485C14.6849 24.2009 15.1913 23.6222 16.0112 23.5498C16.807 23.5016 17.6029 23.5498 18.3987 23.5498Z" fill="white"/>
</svg>
