<svg xmlns="http://www.w3.org/2000/svg" xmlns:xlink="http://www.w3.org/1999/xlink" width="24" height="24" viewBox="0 0 24 24"><defs><style>.a{fill:#fff;stroke:#00dcec;}.b{clip-path:url(#a);}.c{fill:none;stroke:#fff;stroke-linecap:round;stroke-linejoin:round;stroke-width:2.082px;}</style><clipPath id="a"><rect class="a" width="24" height="24"/></clipPath></defs><g class="b"><path class="c" d="M9.371,19.784c-5.206,1.562-5.206-2.6-7.289-3.124M16.66,22.907v-4.03a3.509,3.509,0,0,0-.979-2.718c3.27-.364,6.706-1.6,6.706-7.289a5.664,5.664,0,0,0-1.561-3.9,5.279,5.279,0,0,0-.094-3.926S19.5.677,16.66,2.582a13.932,13.932,0,0,0-7.289,0C6.529.677,5.3,1.041,5.3,1.041a5.279,5.279,0,0,0-.094,3.925A5.664,5.664,0,0,0,3.644,8.9c0,5.644,3.436,6.883,6.706,7.289a3.509,3.509,0,0,0-.979,2.686v4.03" transform="translate(-0.124 0.052)"/></g></svg>